<svg id="grafik" xmlns="http://www.w3.org/2000/svg" viewBox="0 0 396.85 396.85"><defs><style>.cls-1{fill:#fff;}.cls-2{fill:#1d1d1b;}</style></defs><circle class="cls-1" cx="198.15" cy="199.25" r="191.33"/><path class="cls-2" d="M297.65,118.82c-109.38,0-198.43,89-198.43,198.42s89.05,198.43,198.43,198.43,198.42-89,198.42-198.43S407,118.82,297.65,118.82Zm0,384.09C195.28,502.91,112,419.62,112,317.24s83.29-185.68,185.66-185.68S483.3,214.83,483.3,317.24,400,502.91,297.65,502.91Z" transform="translate(-99.22 -118.82)"/><path class="cls-2" d="M432.35,259.77a4.18,4.18,0,0,0-2.49-.79H161.74a4.28,4.28,0,0,0-4.25,4.25v97.93a4.19,4.19,0,0,0,1.77,3.43,4.15,4.15,0,0,0,2.48.8h33.73a4.07,4.07,0,0,0,3.38-1.71,4.14,4.14,0,0,0,.78-2.44,23.76,23.76,0,0,1,9.71-20.08,24.1,24.1,0,0,1,6.58-3.32,23.32,23.32,0,0,1,20.83,3.32,23.66,23.66,0,0,1,5.27,5.3,24.81,24.81,0,0,1,3.35,6.56,26,26,0,0,1,1.09,7.13c-.05,1.6.07,3.2,1.75,4.47a4,4,0,0,0,2.38.78h87.84a4,4,0,0,0,3.36-1.72,3.89,3.89,0,0,0,.8-2.44A23.55,23.55,0,0,1,347,346.47a24.85,24.85,0,0,1,5.29-5.3A23.26,23.26,0,0,1,366,336.73a23.39,23.39,0,0,1,13.72,4.44,24,24,0,0,1,5.29,5.3A23.55,23.55,0,0,1,388.3,353a22.65,22.65,0,0,1,1.12,7.13,4.67,4.67,0,0,0,1.73,4.45,4,4,0,0,0,2.41.78h36.3a4.22,4.22,0,0,0,4.26-4.23V263.23A4.22,4.22,0,0,0,432.35,259.77ZM204.46,309.16a2.14,2.14,0,0,1-2.15,2.13h-34a2.06,2.06,0,0,1-1.23-.41,1.91,1.91,0,0,1-.88-1.72V274a2.22,2.22,0,0,1,.41-1.25,2.05,2.05,0,0,1,1.7-.88h34a2.22,2.22,0,0,1,1.26.4,2.09,2.09,0,0,1,.89,1.73Zm46.82,0a2,2,0,0,1-.9,1.72,2,2,0,0,1-1.24.41H215.08a2.06,2.06,0,0,1-1.23-.41,2.11,2.11,0,0,1-.9-1.72V274a2.28,2.28,0,0,1,.4-1.25,2.1,2.1,0,0,1,1.73-.88h34.06a2.15,2.15,0,0,1,2.14,2.13Zm45.7,0a2.14,2.14,0,0,1-.89,1.72,2.16,2.16,0,0,1-1.26.41H260.75a2.05,2.05,0,0,1-1.21-.41,1.92,1.92,0,0,1-.89-1.72V274a2.12,2.12,0,0,1,.39-1.25,2.07,2.07,0,0,1,1.71-.88h34.08a2.37,2.37,0,0,1,1.26.4A2.14,2.14,0,0,1,297,274Zm46.79,0a2,2,0,0,1-.87,1.72,2.11,2.11,0,0,1-1.25.41h-34a2.09,2.09,0,0,1-1.26-.41,2.06,2.06,0,0,1-.9-1.72V274a2.22,2.22,0,0,1,.41-1.25,2.12,2.12,0,0,1,1.75-.88h34a2.21,2.21,0,0,1,1.25.4,2,2,0,0,1,.87,1.73Zm46.82,0a2,2,0,0,1-.86,1.72,2.09,2.09,0,0,1-1.25.41H354.43a2.07,2.07,0,0,1-1.24-.41,2,2,0,0,1-.9-1.72V274a2.22,2.22,0,0,1,.41-1.25,2.06,2.06,0,0,1,1.73-.88h34.05a2.21,2.21,0,0,1,1.25.4,2,2,0,0,1,.86,1.73Zm34.91,45.57a2,2,0,0,1-.89,1.71,2.05,2.05,0,0,1-1.23.38H401.25a1.93,1.93,0,0,1-1.25-.35,2.07,2.07,0,0,1-.87-1.74V274a2,2,0,0,1,.43-1.25,2,2,0,0,1,1.69-.88h22.13a2.2,2.2,0,0,1,1.23.4,2.09,2.09,0,0,1,.89,1.73Z" transform="translate(-99.22 -118.82)"/><path class="cls-2" d="M376.43,346.47a17.62,17.62,0,0,0-4.75-2.43,17.81,17.81,0,0,0-5.11-.77,16.91,16.91,0,0,0-9.89,3.2,15.81,15.81,0,0,0-3.79,3.82,16.38,16.38,0,0,0-3.2,9.87,16.83,16.83,0,0,0,3.17,9.84,16.11,16.11,0,0,0,3.82,3.82,16.88,16.88,0,0,0,4.73,2.4,16.86,16.86,0,0,0,15-2.4,17.24,17.24,0,0,0,6.21-8.55,16.95,16.95,0,0,0-2.41-15A16.3,16.3,0,0,0,376.43,346.47Z" transform="translate(-99.22 -118.82)"/><path class="cls-2" d="M233,346.47a16.37,16.37,0,0,0-9.89-3.2,16.92,16.92,0,0,0-13.66,7A17.85,17.85,0,0,0,207,355a17.15,17.15,0,0,0-.78,5.17,16.69,16.69,0,0,0,3.2,9.84,16.18,16.18,0,0,0,3.79,3.82,16.69,16.69,0,0,0,4.72,2.4,16.91,16.91,0,0,0,15-2.4,16.64,16.64,0,0,0,3.81-3.82,16.33,16.33,0,0,0,2.39-4.73,17,17,0,0,0-2.4-15A16.41,16.41,0,0,0,233,346.47Z" transform="translate(-99.22 -118.82)"/></svg>