<svg id="grafik" xmlns="http://www.w3.org/2000/svg" viewBox="0 0 394.48 396"><defs><style>.cls-1{fill:#fff;}.cls-2{fill:#1d1d1b;}</style></defs><ellipse class="cls-1" cx="196.41" cy="199.21" rx="190.29" ry="193.05"/><path class="cls-2" d="M297.25,226.92c-108.72,0-197.25,88.84-197.25,198s88.53,198,197.25,198,197.23-88.8,197.23-198-88.51-198-197.23-198m0,383.26c-101.76,0-184.55-83.1-184.55-185.27s82.79-185.28,184.55-185.28,184.54,83.09,184.54,185.28S399,610.18,297.25,610.18" transform="translate(-100 -226.92)"/><path class="cls-2" d="M353.32,542.09h13.95l-34-51.06H319.32l6.8,10.21H266.81l6.8-10.21H259.66l-34,51.06h14l6.8-10.22H346.52ZM253.21,521.67l6.8-10.21h72.91l6.8,10.21Z" transform="translate(-100 -226.92)"/><path class="cls-2" d="M354.31,308.73c-13.82-11.73-38.14-14-57.85-14s-44,2.3-57.85,14-17.46,57.36-17.46,96.8,2,57.61,7.73,66.14c5.08,7.59,14.56,9.15,32.7,9.15h69.76c18.14,0,27.62-1.56,32.7-9.15,5.72-8.53,7.73-26.7,7.73-66.14s-3.65-85.06-17.46-96.8m-57.85-3.82c3.42,0,12,.52,12,8.3s-8.53,8.29-12,8.29-11.95-.52-11.95-8.29,8.54-8.3,11.95-8.3M255.77,463.06a13.51,13.51,0,1,1,13.46-13.5,13.48,13.48,0,0,1-13.46,13.5m81.38,0a13.51,13.51,0,1,1,13.45-13.5,13.48,13.48,0,0,1-13.45,13.5M232.49,404.3s-1.64-52.66,8.49-62.6,40.26-9.94,55.48-9.94,45.35,0,55.48,9.94,8.49,62.6,8.49,62.6q-63.93,2.91-127.94,0" transform="translate(-100 -226.92)"/></svg>