<?xml version="1.0" encoding="utf-8"?>
<!-- Generator: Adobe Illustrator 26.2.1, SVG Export Plug-In . SVG Version: 6.00 Build 0)  -->
<svg version="1.1" xmlns="http://www.w3.org/2000/svg" xmlns:xlink="http://www.w3.org/1999/xlink" x="0px" y="0px"
	 viewBox="0 0 436.6 445.79" style="enable-background:new 0 0 436.6 445.79;" xml:space="preserve">
<style type="text/css">
	.st0{fill:#FFFFFF;}
</style>
<g id="Grid_20_x__x_20_pix">
</g>
<g id="grafik">
	<g id="Bus">
	</g>
	<path d="M217.14,27.37c-109.14,0-198,88.84-198,197.99c0,109.21,88.86,198,198,198c109.14,0,197.99-88.8,197.99-198
		C415.14,116.21,326.29,27.37,217.14,27.37L217.14,27.37z"/>
	<path class="st0" d="M217.14,410.63c-102.15,0-185.26-83.11-185.26-185.27c0-102.19,83.11-185.27,185.26-185.27
		c102.16,0,185.25,83.08,185.25,185.27C402.4,327.53,319.31,410.63,217.14,410.63L217.14,410.63z"/>
	<path d="M295.58,206.47c-0.36,0.41-1.56,0.43-1.97,0.43h-57.78c-0.46,0-1-0.17-1.4-0.42c-0.84-0.72-0.87-1.28-0.92-1.85v-32.26
		c0-0.44,0.12-0.88,0.43-1.34c0.74-0.85,1.24-0.87,1.89-0.91h27.81c1.79,0.01,2.77,1.25,3.48,2.03l28.65,32.26
		C296.26,205.14,295.99,205.95,295.58,206.47L295.58,206.47z M221.2,204.63c-0.02,0.67-0.22,1.29-0.92,1.85
		c-0.44,0.27-0.91,0.42-1.39,0.42h-36.42c-0.41,0-0.9-0.17-1.29-0.42c-0.9-0.72-0.95-1.28-0.97-1.85v-32.26
		c0-0.44,0.13-0.88,0.41-1.34c0.73-0.85,1.27-0.87,1.85-0.91h36.42c0.5,0,0.97,0.12,1.39,0.41c0.83,0.74,0.87,1.26,0.92,1.83V204.63
		L221.2,204.63z M168.06,204.63c0,0.67-0.26,1.29-0.98,1.85c-0.41,0.28-0.9,0.42-1.33,0.42h-36.44c-0.42,0-0.93-0.17-1.33-0.42
		c-0.83-0.72-0.87-1.28-0.92-1.85v-32.26c0-0.44,0.11-0.88,0.41-1.34c0.7-0.85,1.25-0.87,1.83-0.91h36.44
		c0.49,0,0.96,0.12,1.33,0.41c0.88,0.74,0.93,1.26,0.98,1.83V204.63L168.06,204.63z M348.05,222.89
		c-2.54-2.76-17.96-9.31-20.3-10.68c-0.76-0.52-8-4.13-12.06-5.94c-0.58-0.18-8.96-3.5-10.75-5.03
		c-3.64-3.18-32.64-34.35-34.36-36.33c-2.29-2.52-5.11-2.3-5.11-2.3l-6.45-0.02l-142.93,0.02c-1.26,0-2.61,0.51-3.64,1.89
		c-0.66,0.85-0.76,1.63-0.89,2.68c0,0-0.02,52.3,0,76.11l-10.61-19.83c-1.32-2.46-2.11-4.36-3.22-6.65
		c-0.85-1.65-1.34-3.85-1.39-6.64v-40.9c0-0.49-0.2-1.03-0.76-1.45c-0.36-0.23-0.73-0.34-1.04-0.34h-8.88
		c-0.48,0-1.03,0.19-1.44,0.75c-0.28,0.36-0.36,0.73-0.36,1.04l0.05,43.22c-0.05,6.71,2.08,8.7,8.89,21.67l0.08,0.17
		c4.59,8.59,11.79,21.96,15.71,29.32l1.97,3.72c0.23,0.44,0.67,0.82,1.36,1.11c0.41,0.14,1.55,0.53,1.65,0.56l11.78,4.13
		c0.8-0.01,1.97-0.01,2.75,0c-0.77-2.65-1.18-5.41-1.18-8.34c0-16.53,13.43-29.91,29.97-29.91c16.53,0,29.94,13.38,29.94,29.91
		c0,2.95-0.42,5.74-1.2,8.42h92.66c-0.78-2.68-1.2-5.47-1.2-8.42c0-16.53,13.38-29.91,29.98-29.91c16.5,0,29.88,13.38,29.88,29.91
		c0,1.97-0.15,3.92-0.52,5.79c3.83-0.85,15.21-2.27,15.88-3.1c2.03-1.53,2.07-12.6,2.07-17.79
		C354.41,245.13,352.7,228.12,348.05,222.89L348.05,222.89z"/>
	<path d="M157.66,242.5c-12.39,0-22.45,10.01-22.45,22.39c0,12.39,10.06,22.46,22.45,22.46c12.37,0,22.42-10.07,22.42-22.46
		C180.09,252.51,170.03,242.5,157.66,242.5L157.66,242.5z"/>
	<path d="M307.62,242.5c-12.31,0-22.36,10.01-22.36,22.39c0,12.39,10.05,22.46,22.36,22.46c12.39,0,22.46-10.07,22.46-22.46
		C330.08,252.51,320.01,242.5,307.62,242.5L307.62,242.5z"/>
</g>
</svg>
