<?xml version="1.0" standalone="no"?>
<!DOCTYPE svg PUBLIC "-//W3C//DTD SVG 20010904//EN"
 "http://www.w3.org/TR/2001/REC-SVG-20010904/DTD/svg10.dtd">
<svg version="1.0" xmlns="http://www.w3.org/2000/svg"
 width="911.000000pt" height="929.000000pt" viewBox="0 0 911.000000 929.000000"
 preserveAspectRatio="xMidYMid meet">

<g transform="translate(0.000000,929.000000) scale(0.100000,-0.100000)"
fill="#000000" stroke="none">
<path d="M4240 8714 c-117 -9 -391 -47 -510 -71 -661 -133 -1256 -410 -1782
-831 -154 -124 -411 -371 -541 -521 -453 -524 -774 -1171 -916 -1846 -255
-1207 42 -2455 818 -3428 136 -171 469 -504 641 -641 147 -117 387 -281 544
-371 477 -273 1041 -454 1611 -517 158 -17 702 -17 850 0 955 112 1779 499
2449 1152 554 540 937 1201 1125 1941 86 341 124 648 124 1014 0 273 -16 457
-59 710 -243 1406 -1220 2603 -2554 3128 -337 133 -668 217 -1040 262 -130 16
-626 28 -760 19z m787 -293 c499 -68 971 -226 1406 -472 1004 -567 1720 -1594
1901 -2729 38 -236 49 -373 49 -625 0 -252 -11 -389 -49 -625 -177 -1105 -847
-2093 -1819 -2681 -161 -97 -468 -246 -638 -309 -278 -103 -582 -177 -892
-217 -199 -25 -711 -25 -910 0 -790 102 -1476 406 -2069 917 -128 110 -368
357 -468 480 -473 587 -757 1263 -844 2015 -25 209 -25 634 0 840 90 759 370
1427 844 2015 100 123 340 370 468 480 591 510 1308 827 2064 914 207 24 206
24 515 21 222 -3 325 -8 442 -24z"/>
<path d="M2356 5869 l-26 -31 0 -801 c0 -456 -4 -797 -9 -791 -13 14 -220 406
-266 504 l-40 85 -5 480 -5 480 -114 3 c-75 2 -118 -1 -127 -9 -12 -9 -14 -93
-14 -493 0 -287 5 -499 11 -525 5 -24 22 -69 38 -100 58 -117 504 -947 516
-959 18 -19 285 -111 324 -112 33 0 33 1 27 33 -17 86 -18 176 -2 258 47 235
228 425 461 484 76 19 224 19 300 0 172 -44 329 -171 403 -326 22 -46 45 -106
51 -133 14 -57 15 -224 2 -278 -5 -20 -6 -39 -3 -42 3 -4 437 -6 965 -6 l959
0 -6 33 c-43 239 11 426 168 582 139 139 271 190 466 183 127 -5 215 -33 319
-102 112 -75 195 -183 242 -316 19 -54 23 -86 24 -193 l0 -127 25 5 c14 2 80
14 147 25 68 11 134 25 147 29 35 14 46 72 53 266 10 321 -55 617 -153 691
-40 31 -559 289 -684 341 -198 82 -156 44 -794 726 -76 81 -147 152 -157 157
-11 6 -602 10 -1617 10 l-1600 0 -26 -31z m1142 -499 c2 -334 1 -366 -15 -377
-13 -10 -110 -13 -405 -13 -375 0 -389 1 -408 20 -19 19 -20 33 -20 354 0 194
4 346 10 360 l10 26 412 -2 413 -3 3 -365z m1100 358 c9 -9 12 -105 12 -370 0
-343 -1 -358 -19 -368 -13 -6 -160 -10 -410 -10 -341 0 -392 2 -405 16 -14 13
-16 60 -16 360 0 219 4 352 10 365 10 18 25 19 413 19 300 0 406 -3 415 -12z
m944 0 c32 -25 628 -703 628 -715 0 -31 -42 -33 -660 -31 -539 3 -622 5 -630
18 -14 21 -13 696 0 721 10 18 25 19 328 19 239 0 322 -3 334 -12z"/>
<path d="M3173 4225 c-83 -23 -152 -63 -214 -124 -271 -271 -122 -727 259
-793 306 -52 586 227 534 535 -46 274 -317 452 -579 382z"/>
<path d="M6305 4226 c-79 -19 -141 -54 -206 -114 -102 -94 -149 -202 -149
-342 0 -231 163 -423 394 -463 174 -30 367 59 467 214 90 141 92 344 6 492
-33 56 -132 148 -189 175 -101 49 -220 63 -323 38z"/>
</g>
</svg>
