<!DOCTYPE svg PUBLIC "-//W3C//DTD SVG 1.1//EN" "http://www.w3.org/Graphics/SVG/1.1/DTD/svg11.dtd">
<!-- Uploaded to: SVG Repo, www.svgrepo.com, Transformed by: SVG Repo Mixer Tools -->
<svg fill="#ecc609" version="1.1" id="Capa_1" xmlns="http://www.w3.org/2000/svg" xmlns:xlink="http://www.w3.org/1999/xlink" width="800px" height="800px" viewBox="0 0 45.719 45.718" xml:space="preserve" stroke="#ecc609">
<g id="SVGRepo_bgCarrier" stroke-width="0"/>
<g id="SVGRepo_tracerCarrier" stroke-linecap="round" stroke-linejoin="round"/>
<g id="SVGRepo_iconCarrier"> <g> <g> <path d="M41.82,17.503h-1.619c-0.84-3.003-3.572-5.187-6.816-5.187H7.08c-3.91,0-7.08,3.171-7.08,7.081v6.925 c0,3.91,3.17,7.081,7.08,7.081h26.305c3.256,0,5.997-2.185,6.824-5.187h1.611c2.146,0,3.898-1.744,3.898-3.892V21.36 C45.721,19.214,43.968,17.503,41.82,17.503z M36.576,26.292c0,1.741-1.411,3.151-3.152,3.151H7.109 c-1.74,0-3.152-1.41-3.152-3.151v-6.934c0-1.741,1.412-3.152,3.152-3.152h26.314c1.741,0,3.152,1.411,3.152,3.152L36.576,26.292 L36.576,26.292z"/> <path d="M12.959,18.118H7.581c-0.645,0-1.166,0.521-1.166,1.166v7.151c0,0.645,0.521,1.167,1.166,1.167h5.378 c0.645,0,1.166-0.522,1.166-1.167v-7.151C14.125,18.639,13.604,18.118,12.959,18.118z"/> <path d="M22.921,18.118h-5.377c-0.645,0-1.166,0.521-1.166,1.166v7.151c0,0.645,0.521,1.167,1.166,1.167h5.377 c0.646,0,1.168-0.522,1.168-1.167v-7.151C24.089,18.639,23.566,18.118,22.921,18.118z"/> <path d="M32.884,18.118h-5.377c-0.644,0-1.167,0.521-1.167,1.166v7.151c0,0.645,0.523,1.167,1.167,1.167h5.377 c0.646,0,1.168-0.522,1.168-1.167v-7.151C34.052,18.639,33.527,18.118,32.884,18.118z"/> </g> </g> </g>
</svg>