<?xml version="1.0" encoding="UTF-8"?>
<svg xmlns="http://www.w3.org/2000/svg" viewBox="0 0 15.59 15.59">
  <defs>
    <style>
      .cls-1 {
        fill: #071f39;
      }

      .cls-1, .cls-2 {
        stroke-width: 0px;
      }

      .cls-2 {
        fill: #fff;
      }
    </style>
  </defs>
  <g id="Cirkel">
    <rect class="cls-1" x="0" y="0" width="15.59" height="15.59" rx="7.8" ry="7.8"/>
  </g>
  <g id="ICONS">
    <path class="cls-2" d="M13,8.77h-.83c-.2-.44-.4-.87-.59-1.31-.04-.1-.09-.2-.13-.29-.04-.09-.16-.15-.26-.15h-4.6c-.1,0-.22.06-.26.15-.23.53-.46,1.07-.69,1.6h-.92c-.07,0-.13.06-.13.13v.33c0,.07.06.13.13.13h.66l-.07.16s-.03.09-.03.13v1.83s-.01.88-.01.88c-.65-.16-1.13-.75-1.13-1.45,0,0,0-3.13,0-3.13h.06c.12,0,.22-.1.22-.22h0s0-.01,0-.01c0-.02,0-.04,0-.07v-.23c.05,0,.1,0,.14,0,.13,0,.26-.01.38-.05.23-.08.36-.26.35-.5,0-.14,0-.27,0-.41,0-.35,0-.69,0-1.04,0-.13,0-.27,0-.4.08,0,.15,0,.22,0,.03,0,.05-.01.08-.03.2-.19.2-.5,0-.69-.03-.03-.05-.04-.1-.04-.12,0-.23,0-.35,0-.05,0-.11,0-.17,0,0-.33,0-.64,0-.96,0-.1-.04-.17-.11-.22-.08-.06-.17-.09-.26-.04-.09.05-.17.12-.17.24,0,.31,0,.62,0,.93,0,.02,0,.04,0,.06-.35,0-.69,0-1.02,0,0-.1-.02-.19-.02-.28,0-.26,0-.52,0-.77,0-.02,0-.03,0-.05-.05-.09-.12-.17-.24-.18-.11-.01-.18.04-.24.12-.03.03-.05.06-.05.11,0,.26,0,.53,0,.79,0,.08,0,.17,0,.26-.05,0-.09,0-.13,0-.13,0-.26,0-.39,0-.04,0-.06.01-.09.04-.19.19-.2.49,0,.69.03.03.06.05.11.04.07,0,.13,0,.2,0,0,.09,0,.18.01.26,0,.28,0,.56,0,.84,0,.26,0,.53,0,.79,0,.2.1.34.28.43.15.07.31.08.47.08.04,0,.09,0,.12,0,0,0,0,0,0,0v.3c0,.12.1.22.22.22h.06v3.19c.03.98.8,1.76,1.77,1.82,0,0,0,0,0,0h.01s0,0,0,0h.76-.02c.13-.02.24-.13.24-.26v-1.06h4.79v1.06c0,.14.12.26.26.26h.74c.14,0,.26-.12.26-.26v-2.89h0s-.01-.09-.03-.13c-.02-.05-.05-.11-.07-.16h.56c.07,0,.13-.06.13-.13v-.33c0-.07-.06-.13-.13-.13ZM3.54,6.03v-.9s.72-.01.72-.01l-.26.67h.27s-.46,1.03-.46,1.03l.03-.79h-.29ZM6.71,7.77s.04-.1.06-.15h4.22c.24.54.49,1.07.73,1.61h-5.64c.21-.49.42-.97.63-1.46ZM7.25,10.13c0,.15-.12.28-.28.28h-.7c-.21,0-.38-.17-.38-.38,0-.12.09-.21.21-.21h.94c.12,0,.21.09.21.21v.1ZM11.61,10.41h-.7c-.15,0-.28-.12-.28-.28v-.1c0-.12.09-.21.21-.21h.94c.12,0,.21.09.21.21,0,.21-.17.38-.38.38Z"/>
  </g>
</svg>