<svg xmlns="http://www.w3.org/2000/svg" width="5.5mm" height="5.5mm" viewBox="0 0 15.591 15.591">
  <rect width="15.591" height="15.591" fill="#FF6108"/>
  <g>
    <path d="M4.6,9.872V5.607a.5.5,0,0,0-.994,0V9.872a.5.5,0,1,0,.994,0Z" fill="#fff"/>
    <path d="M2.906,4.783a.465.465,0,0,0,.122-.016l4.751-1.2,4.785,1.2A.5.5,0,0,0,12.8,3.8L7.9,2.576a.473.473,0,0,0-.242,0L2.785,3.8a.5.5,0,0,0,.121.98Z" fill="#fff"/>
    <path d="M2.682,11.148a.5.5,0,0,0,.5.5h9.232a.5.5,0,0,0,0-.995H3.179A.5.5,0,0,0,2.682,11.148Z" fill="#fff"/>
    <path d="M13.547,12.339H2.043a.5.5,0,0,0,0,.995h11.5a.5.5,0,0,0,0-.995Z" fill="#fff"/>
    <path d="M6.446,9.872V5.607a.5.5,0,0,0-1,0V9.872a.5.5,0,1,0,1,0Z" fill="#fff"/>
    <path d="M8.293,9.872V5.607a.5.5,0,0,0-.995,0V9.872a.5.5,0,1,0,.995,0Z" fill="#fff"/>
    <path d="M10.139,9.872V5.607a.5.5,0,1,0-.994,0V9.872a.5.5,0,1,0,.994,0Z" fill="#fff"/>
    <path d="M11.986,9.872V5.607a.5.5,0,0,0-1,0V9.872a.5.5,0,1,0,1,0Z" fill="#fff"/>
  </g>
</svg>
